<?xml version="1.0" encoding="UTF-8" standalone="no"?>
<!DOCTYPE svg PUBLIC "-//W3C//DTD SVG 1.1//EN" "http://www.w3.org/Graphics/SVG/1.1/DTD/svg11.dtd">
<svg width="100%" height="100%" viewBox="0 0 18 18" version="1.1" xmlns="http://www.w3.org/2000/svg" xmlns:xlink="http://www.w3.org/1999/xlink" xml:space="preserve" xmlns:serif="http://www.serif.com/" style="fill-rule:evenodd;clip-rule:evenodd;stroke-miterlimit:10;">
    <g transform="matrix(-1,0,0,-1,16,16)">
        <clipPath id="_clip1">
            <path d="M7,13C3.686,13 1,10.314 1,7C1,3.686 3.686,1 7,1C10.314,1 13,3.686 13,7C13,10.314 10.314,13 7,13Z"/>
        </clipPath>
        <g clip-path="url(#_clip1)">
            <rect x="-3" y="-3" width="20" height="20" style="fill:rgb(241,169,32);"/>
        </g>
    </g>
    <g transform="matrix(1,0,0,1,4,4)">
        <clipPath id="_clip2">
            <path d="M22,22L-12,22L-12,-12L22,-12L22,22ZM5,0C2.239,0 0,2.239 0,5C0,7.761 2.239,10 5,10C7.761,10 10,7.761 10,5C10,2.239 7.761,0 5,0Z"/>
        </clipPath>
        <g clip-path="url(#_clip2)">
            <circle cx="5" cy="5" r="5" style="fill:none;stroke:rgb(56,60,74);stroke-width:8px;"/>
        </g>
    </g>
    <g transform="matrix(-1,-3.06162e-17,-3.49899e-17,-1,12,12)">
        <clipPath id="_clip3">
            <path d="M3,6C4.657,6 6,4.657 6,3C6,1.343 4.657,0 3,0C1.343,0 0,1.343 0,3C0,4.657 1.343,6 3,6Z"/>
        </clipPath>
        <g clip-path="url(#_clip3)">
            <rect x="-5" y="-5" width="16" height="16" style="fill:rgb(56,60,74);"/>
        </g>
    </g>
</svg>
