<?xml version="1.0" encoding="UTF-8" standalone="no"?>
<!DOCTYPE svg PUBLIC "-//W3C//DTD SVG 1.1//EN" "http://www.w3.org/Graphics/SVG/1.1/DTD/svg11.dtd">
<svg width="100%" height="100%" viewBox="0 0 44 44" version="1.1" xmlns="http://www.w3.org/2000/svg" xmlns:xlink="http://www.w3.org/1999/xlink" xml:space="preserve" xmlns:serif="http://www.serif.com/" style="fill-rule:evenodd;clip-rule:evenodd;stroke-miterlimit:10;">
    <g transform="matrix(0.939693,-0.34202,-0.34202,-0.939693,18.6316,43.4454)">
        <clipPath id="_clip1">
            <path d="M0,35.997C0,37.103 0.902,38 1.995,38L19.005,38C20.107,38 21,37.098 21,35.997L21,2.003C21,0.897 20.098,0 19.005,0L1.995,0C0.893,0 0,0.902 0,2.003L0,35.997Z"/>
        </clipPath>
        <g clip-path="url(#_clip1)">
            <path d="M0,35.997C0,37.103 0.902,38 1.995,38L19.005,38C20.107,38 21,37.098 21,35.997L21,2.003C21,0.897 20.098,0 19.005,0L1.995,0C0.893,0 0,0.902 0,2.003L0,35.997Z" style="fill:none;stroke:white;stroke-width:4px;"/>
        </g>
    </g>
    <g transform="matrix(0.939693,-0.34202,-0.34202,-0.939693,8.37101,15.2546)">
        <path d="M0,1L20.123,1" style="fill:none;stroke:white;stroke-width:2px;"/>
    </g>
    <g transform="matrix(0.939693,-0.34202,-0.34202,-0.939693,17.2635,39.6866)">
        <path d="M0,1L20.123,1" style="fill:none;stroke:white;stroke-width:2px;"/>
    </g>
    <g transform="matrix(0.939693,-0.34202,-0.34202,-0.939693,15.8022,9.35734)">
        <path d="M0,1L4,1" style="fill:none;stroke:white;stroke-width:2px;"/>
    </g>
    <g transform="matrix(-0.939693,0.34202,-0.34202,-0.939693,26.2286,20.4609)">
        <circle cx="4" cy="4" r="4" style="fill:none;stroke:white;stroke-width:2px;"/>
    </g>
    <g transform="matrix(0.939693,-0.34202,-0.34202,-0.939693,23.071,32.252)">
        <path d="M3,10L3,0L0,0" style="fill:none;stroke:white;stroke-width:2px;stroke-linecap:square;"/>
    </g>
    <g transform="matrix(-0.939693,0.34202,-0.34202,-0.939693,23.9243,28.7489)">
        <path d="M0,1L2,1" style="fill:none;stroke:white;stroke-width:2px;"/>
    </g>
</svg>
